<svg xmlns="http://www.w3.org/2000/svg" xmlns:xlink="http://www.w3.org/1999/xlink" version="1.1" x="0px" y="0px" viewBox="10 10 80 80" enable-background="new 0 0 100 100" xml:space="preserve"><g><path fill="none" d="M40,60.8c0,0-0.1,0-0.1,0c-0.2,0-0.4-0.1-0.5-0.4c0,0,0-0.1,0-0.1c0-0.2,0.1-0.4,0.4-0.5l2.2-0.6l6.4-37.9   L17.7,66.1l0.3-0.1c0.3-0.1,0.5,0.1,0.6,0.3c0,0,0,0.1,0,0.1c0,0.2-0.1,0.4-0.4,0.5l-0.8,0.2l20.5,14.2l3.6-21L40,60.8z M23.1,65.6   l-2.4,0.7c0,0-0.1,0-0.1,0c-0.2,0-0.4-0.2-0.5-0.4c0,0,0-0.1,0-0.1c0-0.2,0.1-0.4,0.4-0.5l2.4-0.7c0.3-0.1,0.6,0.1,0.6,0.3   c0,0,0,0.1,0,0.1C23.5,65.3,23.4,65.5,23.1,65.6z M27.9,64.2l-2.4,0.7c0,0-0.1,0-0.1,0c-0.2,0-0.4-0.1-0.5-0.4c0,0,0-0.1,0-0.1   c0-0.2,0.2-0.4,0.4-0.5l2.4-0.7c0.3-0.1,0.5,0.1,0.6,0.3c0,0,0,0.1,0,0.1C28.3,64,28.2,64.2,27.9,64.2z M32.8,62.8l-2.4,0.7   c0,0-0.1,0-0.1,0c-0.2,0-0.4-0.1-0.5-0.4c0,0,0-0.1,0-0.1c0-0.2,0.1-0.4,0.4-0.5l2.4-0.7c0.3-0.1,0.6,0.1,0.6,0.3c0,0,0,0.1,0,0.1   C33.1,62.6,33,62.8,32.8,62.8z M37.6,61.5l-2.4,0.7c0,0-0.1,0-0.1,0c-0.2,0-0.4-0.1-0.5-0.4c0,0,0-0.1,0-0.1c0-0.2,0.2-0.4,0.4-0.5   l2.4-0.7c0.3-0.1,0.5,0.1,0.6,0.3c0,0.1,0,0.1,0,0.2C37.9,61.2,37.8,61.4,37.6,61.5z"/><path fill="none" d="M82.2,66L50.7,19.7c0,0.1-0.1,0.1-0.2,0.1l-0.3,1.7c0.1-0.1,0.2-0.1,0.3-0.1c0.3,0,0.5,0.2,0.5,0.4l0.3,2.5   c0,0,0,0,0,0c0,0.3-0.2,0.5-0.4,0.5c0,0,0,0-0.1,0c-0.3,0-0.5-0.2-0.5-0.4l-0.3-2.2l-10,59.3l42-14.7c-0.1-0.1-0.2-0.2-0.2-0.4   c0,0,0-0.1,0-0.2C81.9,66.1,82.1,66,82.2,66z M52.9,36.7l0.3,2.5c0,0,0,0,0,0.1c0,0.3-0.2,0.5-0.4,0.5c0,0,0,0-0.1,0   c-0.3,0-0.5-0.2-0.5-0.4l-0.3-2.5c0,0,0,0,0,0c0-0.3,0.2-0.5,0.4-0.5C52.6,36.3,52.8,36.5,52.9,36.7z M52.3,31.8l0.3,2.5   c0,0,0,0,0,0c0,0.3-0.2,0.5-0.4,0.5c0,0,0,0-0.1,0c-0.3,0-0.5-0.2-0.5-0.4l-0.3-2.5c0,0,0,0,0,0c0-0.3,0.2-0.5,0.4-0.5   C52,31.3,52.2,31.5,52.3,31.8z M50.7,26.9c0-0.3,0.2-0.5,0.4-0.5c0.3,0,0.5,0.2,0.6,0.4l0.3,2.5c0,0,0,0,0,0.1   c0,0.3-0.2,0.5-0.4,0.5c0,0,0,0-0.1,0c-0.3,0-0.5-0.2-0.5-0.4L50.7,26.9C50.7,26.9,50.7,26.9,50.7,26.9z M47.2,58.7l-2.4,0.7   c-0.1,0-0.1,0-0.1,0c-0.2,0-0.4-0.1-0.5-0.4c0,0,0-0.1,0-0.1c0-0.2,0.1-0.4,0.4-0.5l2.4-0.7c0.3-0.1,0.5,0.1,0.6,0.3   c0,0,0,0.1,0,0.1C47.5,58.5,47.4,58.7,47.2,58.7z M52,57.4l-2.4,0.7c0,0-0.1,0-0.1,0c-0.2,0-0.4-0.1-0.5-0.4c0,0,0-0.1,0-0.1   c0-0.2,0.1-0.4,0.4-0.5l2.4-0.7c0.3-0.1,0.5,0.1,0.6,0.3c0,0,0,0.1,0,0.1C52.4,57.1,52.2,57.3,52,57.4z M52.8,44.3l-0.3-2.5   c0,0,0,0,0,0c0-0.3,0.2-0.5,0.5-0.5c0.3,0,0.5,0.2,0.5,0.4l0.3,2.5c0,0,0,0,0,0.1c0,0.3-0.2,0.5-0.4,0.5c0,0,0,0-0.1,0   C53,44.7,52.8,44.6,52.8,44.3z M53.3,49.3l-0.3-2.5c0,0,0,0,0,0c0-0.3,0.2-0.5,0.4-0.5c0.3,0,0.5,0.2,0.5,0.4l0.3,2.5   c0,0,0,0,0,0.1c0,0.3-0.2,0.5-0.4,0.5c0,0,0,0-0.1,0C53.6,49.7,53.4,49.5,53.3,49.3z M53.6,51.7c0-0.3,0.2-0.5,0.4-0.5   c0.3,0,0.5,0.2,0.5,0.4l0.3,2.5c0,0,0,0,0,0c0,0.3-0.2,0.5-0.4,0.5c0,0,0,0-0.1,0c-0.3,0-0.5-0.2-0.5-0.4L53.6,51.7   C53.6,51.7,53.6,51.7,53.6,51.7z M57.1,57c0,0,0,0.1-0.1,0.1l0,0c-0.1,0.1-0.2,0.2-0.3,0.2c0,0,0,0-0.1,0c0,0-0.1,0-0.1,0   c0,0,0,0,0,0l-1.8-0.7l-0.2,0.1c0,0,0,0,0,0c-0.3,0.1-0.5-0.1-0.6-0.3c0-0.1,0-0.3,0.1-0.4c0.1-0.1,0.2-0.2,0.3-0.2l0.4-0.1   c0,0,0,0,0,0l0.3,0c0,0,0,0,0,0l1.9,0.7c0.2,0.1,0.3,0.3,0.3,0.5C57.1,56.9,57.1,56.9,57.1,57z M61.8,58.7   c-0.1,0.2-0.3,0.3-0.5,0.3c-0.1,0-0.1,0-0.2,0l-2.4-0.9c-0.2-0.1-0.3-0.3-0.3-0.5c0-0.1,0-0.1,0-0.2c0.1-0.3,0.4-0.4,0.6-0.3   l2.3,0.9c0.2,0.1,0.3,0.3,0.3,0.5C61.8,58.6,61.8,58.7,61.8,58.7z M66.4,60.5c-0.1,0.2-0.3,0.3-0.5,0.3c-0.1,0-0.1,0-0.2,0   l-2.3-0.9c-0.2-0.1-0.3-0.3-0.3-0.5c0-0.1,0-0.1,0-0.2c0.1-0.3,0.4-0.4,0.6-0.3l2.3,0.9c0.2,0.1,0.3,0.3,0.3,0.5   C66.5,60.4,66.5,60.4,66.4,60.5z M71.1,62.2c-0.1,0.2-0.3,0.3-0.5,0.3c-0.1,0-0.1,0-0.2,0l-2.3-0.9c-0.2-0.1-0.3-0.3-0.3-0.5   c0-0.1,0-0.1,0-0.2c0.1-0.3,0.4-0.4,0.7-0.3l2.3,0.9c0.2,0.1,0.3,0.3,0.3,0.5C71.1,62.1,71.1,62.2,71.1,62.2z M75.8,64   c-0.1,0.2-0.3,0.3-0.5,0.3c0,0-0.1,0-0.2,0l-2.3-0.9c-0.2-0.1-0.3-0.3-0.3-0.5c0-0.1,0-0.1,0-0.2c0.1-0.3,0.4-0.4,0.7-0.3l2.3,0.9   c0.2,0.1,0.3,0.3,0.3,0.5C75.8,63.9,75.8,63.9,75.8,64z M80.5,65.8c-0.1,0.2-0.3,0.3-0.5,0.3c-0.1,0-0.1,0-0.2,0l-2.3-0.9   c-0.2-0.1-0.3-0.3-0.3-0.5c0-0.1,0-0.1,0-0.2c0.1-0.3,0.4-0.4,0.6-0.3l2.3,0.9c0.2,0.1,0.3,0.3,0.3,0.5   C80.5,65.6,80.5,65.7,80.5,65.8z"/><path d="M85.2,67.1c0-0.1,0-0.1,0-0.2c0,0,0,0,0-0.1c0,0,0-0.1-0.1-0.1c0,0,0-0.1-0.1-0.1L50.8,16.4c0,0,0,0,0,0l0,0c0,0,0,0,0,0   c0-0.1-0.1-0.1-0.2-0.2c0,0-0.1-0.1-0.1-0.1c0,0,0,0,0,0c0,0,0,0,0,0c0,0-0.1,0-0.1-0.1c0,0-0.1,0-0.1,0c0,0-0.1,0-0.1-0.1   c0,0,0,0,0,0c0,0,0,0,0,0c0,0-0.1,0-0.1,0c-0.1,0-0.1,0-0.2,0c0,0,0,0,0,0c-0.1,0-0.1,0-0.2,0.1c-0.1,0-0.1,0-0.2,0.1c0,0,0,0,0,0   c0,0,0,0,0,0c-0.1,0-0.1,0.1-0.2,0.2c0,0-0.1,0-0.1,0.1l0,0c0,0,0,0,0,0l0,0c0,0,0,0,0,0L15,66.6c0,0.1-0.1,0.1-0.1,0.2   c0,0.1-0.1,0.1-0.1,0.2c0,0.1,0,0.1,0,0.2c0,0.1,0,0.1,0,0.2c0,0.1,0.1,0.1,0.1,0.2c0,0,0,0.1,0.1,0.1c0,0.1,0.1,0.1,0.2,0.2   c0,0,0.1,0.1,0.1,0.1l0,0c0,0,0,0,0,0c0,0,0,0,0,0l23,15.9c0,0,0,0,0,0c0,0,0,0,0.1,0c0.1,0,0.2,0.1,0.3,0.1c0,0,0,0,0,0   c0.1,0,0.1,0,0.2,0c0,0,0,0,0,0c0,0,0,0,0,0c0,0,0,0,0,0c0,0,0,0,0,0c0.1,0,0.2,0,0.3-0.1l0,0c0,0,0,0,0,0l45.4-15.9c0,0,0,0,0,0   c0.1,0,0.1,0,0.2-0.1c0,0,0,0,0-0.1c0.1,0,0.1-0.1,0.1-0.1c0,0,0.1-0.1,0.1-0.2c0-0.1,0-0.1,0.1-0.2c0-0.1,0-0.1,0-0.2   C85.2,67.2,85.2,67.2,85.2,67.1z M38.1,81.3L17.6,67.2l0.8-0.2c0.2-0.1,0.4-0.3,0.4-0.5c0,0,0-0.1,0-0.1c-0.1-0.3-0.3-0.4-0.6-0.3   l-0.3,0.1l30.5-44.8l-6.4,37.9l-2.2,0.6c-0.2,0.1-0.4,0.3-0.4,0.5c0,0,0,0.1,0,0.1c0.1,0.2,0.3,0.4,0.5,0.4c0,0,0.1,0,0.1,0   l1.7-0.5L38.1,81.3z M82.1,66.9l-42,14.7l10-59.3l0.3,2.2c0,0.3,0.2,0.4,0.5,0.4c0,0,0,0,0.1,0c0.3,0,0.4-0.2,0.4-0.5c0,0,0,0,0,0   l-0.3-2.5c0-0.3-0.3-0.5-0.5-0.4c-0.1,0-0.2,0.1-0.3,0.1l0.3-1.7c0.1,0,0.1-0.1,0.2-0.1L82.2,66c-0.1,0-0.3,0.1-0.3,0.3   c0,0.1,0,0.1,0,0.2C81.8,66.6,81.9,66.8,82.1,66.9z"/><path d="M46.9,57.8l-2.4,0.7c-0.2,0.1-0.4,0.3-0.4,0.5c0,0,0,0.1,0,0.1c0.1,0.2,0.3,0.4,0.5,0.4c0,0,0.1,0,0.1,0l2.4-0.7   c0.2-0.1,0.4-0.3,0.4-0.5c0,0,0-0.1,0-0.1C47.4,57.9,47.2,57.7,46.9,57.8z"/><path d="M51.7,56.4l-2.4,0.7c-0.2,0.1-0.4,0.3-0.4,0.5c0,0,0,0.1,0,0.1c0.1,0.2,0.3,0.4,0.5,0.4c0,0,0.1,0,0.1,0l2.4-0.7   c0.2-0.1,0.4-0.3,0.4-0.5c0,0,0-0.1,0-0.1C52.3,56.5,52,56.3,51.7,56.4z"/><path d="M37.3,60.5l-2.4,0.7c-0.2,0.1-0.4,0.3-0.4,0.5c0,0,0,0.1,0,0.1c0.1,0.2,0.3,0.4,0.5,0.4c0.1,0,0.1,0,0.1,0l2.4-0.7   c0.2-0.1,0.4-0.3,0.4-0.5c0,0,0-0.1,0-0.2C37.8,60.6,37.5,60.4,37.3,60.5z"/><path d="M22.9,64.6l-2.4,0.7c-0.2,0.1-0.4,0.3-0.4,0.5c0,0,0,0.1,0,0.1c0.1,0.2,0.3,0.4,0.5,0.4c0,0,0.1,0,0.1,0l2.4-0.7   c0.2-0.1,0.4-0.3,0.4-0.5c0,0,0-0.1,0-0.1C23.4,64.7,23.1,64.6,22.9,64.6z"/><path d="M27.7,63.3l-2.4,0.7c-0.2,0.1-0.4,0.3-0.4,0.5c0,0,0,0.1,0,0.1c0.1,0.2,0.3,0.4,0.5,0.4c0.1,0,0.1,0,0.1,0l2.4-0.7   c0.2-0.1,0.4-0.3,0.4-0.5c0,0,0-0.1,0-0.1C28.2,63.3,27.9,63.2,27.7,63.3z"/><path d="M80.2,65.1l-2.3-0.9c-0.3-0.1-0.5,0-0.6,0.3c0,0.1,0,0.1,0,0.2c0,0.2,0.1,0.4,0.3,0.5l2.3,0.9c0.1,0,0.1,0,0.2,0   c0.2,0,0.4-0.1,0.5-0.3c0-0.1,0-0.1,0-0.2C80.5,65.4,80.4,65.2,80.2,65.1z"/><path d="M61.5,58.1l-2.3-0.9c-0.3-0.1-0.5,0-0.6,0.3c0,0.1,0,0.1,0,0.2c0,0.2,0.1,0.4,0.3,0.5l2.4,0.9c0,0,0.1,0,0.2,0   c0.2,0,0.4-0.1,0.5-0.3c0-0.1,0-0.1,0-0.2C61.8,58.4,61.7,58.2,61.5,58.1z"/><path d="M70.8,61.6l-2.3-0.9c-0.3-0.1-0.6,0.1-0.7,0.3c0,0,0,0.1,0,0.2c0,0.2,0.1,0.4,0.3,0.5l2.3,0.9c0.1,0,0.1,0,0.2,0   c0.2,0,0.4-0.1,0.5-0.3c0,0,0-0.1,0-0.2C71.1,61.9,71,61.7,70.8,61.6z"/><path d="M75.5,63.4l-2.3-0.9c-0.3-0.1-0.5,0-0.7,0.3c0,0.1,0,0.1,0,0.2c0,0.2,0.1,0.4,0.3,0.5l2.3,0.9c0.1,0,0.1,0,0.2,0   c0.2,0,0.4-0.1,0.5-0.3c0-0.1,0-0.1,0-0.2C75.8,63.6,75.7,63.4,75.5,63.4z"/><path d="M32.5,61.9l-2.4,0.7c-0.2,0.1-0.4,0.2-0.4,0.5c0,0,0,0.1,0,0.1c0.1,0.2,0.3,0.4,0.5,0.4c0,0,0.1,0,0.1,0l2.4-0.7   c0.2-0.1,0.4-0.3,0.4-0.5c0,0,0-0.1,0-0.1C33,62,32.7,61.8,32.5,61.9z"/><path d="M66.1,59.8L63.8,59c-0.3-0.1-0.5,0-0.6,0.3c0,0.1,0,0.1,0,0.2c0,0.2,0.1,0.4,0.3,0.5l2.3,0.9c0,0,0.1,0,0.2,0   c0.2,0,0.4-0.1,0.5-0.3c0-0.1,0-0.1,0-0.2C66.5,60.1,66.3,59.9,66.1,59.8z"/><path d="M56.8,56.3l-1.9-0.7c0,0,0,0,0,0l-0.3,0c0,0,0,0,0,0l-0.4,0.1c-0.1,0-0.2,0.1-0.3,0.2c-0.1,0.1-0.1,0.3-0.1,0.4   c0.1,0.3,0.4,0.4,0.6,0.3c0,0,0,0,0,0l0.2-0.1l1.8,0.7c0,0,0,0,0,0c0,0,0.1,0,0.1,0c0,0,0,0,0.1,0c0.1,0,0.2-0.1,0.3-0.2l0,0   c0,0,0.1-0.1,0.1-0.1c0-0.1,0-0.1,0-0.2C57.1,56.6,57,56.4,56.8,56.3z"/><path d="M53.3,44.7c0.3,0,0.4-0.2,0.4-0.5c0,0,0,0,0-0.1l-0.3-2.5c0-0.3-0.3-0.5-0.5-0.4c-0.3,0-0.5,0.3-0.5,0.5c0,0,0,0,0,0   l0.3,2.5C52.8,44.6,53,44.7,53.3,44.7C53.3,44.7,53.3,44.7,53.3,44.7z"/><path d="M54.4,54.7C54.5,54.7,54.5,54.7,54.4,54.7c0.3,0,0.5-0.3,0.5-0.5c0,0,0,0,0,0l-0.3-2.5c0-0.3-0.3-0.5-0.5-0.4   c-0.3,0-0.5,0.3-0.4,0.5c0,0,0,0,0,0l0.3,2.5C54,54.5,54.2,54.7,54.4,54.7z"/><path d="M53.9,49.7c0.3,0,0.4-0.3,0.4-0.5c0,0,0,0,0-0.1L54,46.7c0-0.3-0.3-0.5-0.5-0.4c-0.3,0-0.5,0.3-0.4,0.5c0,0,0,0,0,0   l0.3,2.5C53.4,49.5,53.6,49.7,53.9,49.7C53.9,49.7,53.9,49.7,53.9,49.7z"/><path d="M51.3,31.8C51.3,31.9,51.3,31.9,51.3,31.8l0.3,2.5c0,0.3,0.2,0.4,0.5,0.4c0,0,0,0,0.1,0c0.3,0,0.4-0.2,0.4-0.5c0,0,0,0,0,0   l-0.3-2.5c0-0.3-0.3-0.5-0.6-0.4C51.5,31.4,51.3,31.6,51.3,31.8z"/><path d="M51.5,29.8C51.5,29.8,51.5,29.8,51.5,29.8c0.3,0,0.5-0.3,0.5-0.5c0,0,0,0,0-0.1l-0.3-2.5c0-0.3-0.3-0.5-0.6-0.4   c-0.3,0-0.4,0.3-0.4,0.5c0,0,0,0,0,0l0.3,2.5C51,29.7,51.2,29.8,51.5,29.8z"/><path d="M51.9,36.8C51.9,36.8,51.9,36.8,51.9,36.8l0.3,2.5c0,0.3,0.3,0.4,0.5,0.4c0,0,0,0,0.1,0c0.3,0,0.4-0.3,0.4-0.5   c0,0,0,0,0-0.1l-0.3-2.5c0-0.3-0.3-0.5-0.6-0.4C52.1,36.3,51.9,36.5,51.9,36.8z"/></g></svg>